<svg width="24" height="24" viewBox="0 0 24 24" fill="none" xmlns="http://www.w3.org/2000/svg">
<path d="M19.2 0H4.79996C3.5273 0.00140622 2.30725 0.507459 1.40745 1.40745C0.507449 2.30725 0.00138858 3.5273 0 4.79996V19.2C0.00140622 20.4727 0.507459 21.6927 1.40745 22.5925C2.30725 23.4926 3.5273 23.9986 4.79996 24H19.2C20.4727 23.9988 21.6927 23.4925 22.5928 22.5928C23.4926 21.6927 23.9988 20.4727 24 19.2V4.79996C23.9988 3.5273 23.4925 2.30725 22.5928 1.40725C21.6927 0.507449 20.4727 0.00118286 19.2 0V0ZM21.6001 19.1999C21.5993 19.8362 21.3462 20.4463 20.8964 20.8963C20.4464 21.3461 19.8363 21.5992 19.2 21.6H4.79996C4.16373 21.5994 3.55363 21.3463 3.10363 20.8963C2.65363 20.4462 2.40049 19.8362 2.39988 19.1999V4.79986C2.40048 4.16363 2.65361 3.55353 3.10363 3.10353C3.55365 2.65352 4.16373 2.40039 4.79996 2.39977H19.2C19.8363 2.40058 20.4464 2.6537 20.8964 3.10353C21.3462 3.55353 21.5993 4.16363 21.6001 4.79986V19.1999Z" fill="white"/>
<path d="M11.9999 6.64623C10.58 6.64623 9.21836 7.21056 8.21452 8.21461C7.21063 9.21865 6.64677 10.5803 6.64697 12.0002C6.64697 13.4201 7.2111 14.7818 8.21514 15.7857C9.21919 16.7895 10.5809 17.3536 12.0008 17.3534C13.4207 17.3534 14.7824 16.7893 15.7862 15.7854C16.7902 14.7814 17.3542 13.4197 17.3542 11.9998C17.3525 10.5803 16.788 9.21947 15.7842 8.21579C14.7803 7.2121 13.4195 6.64762 11.9999 6.64618V6.64623ZM11.9999 14.9535C11.2167 14.9533 10.4655 14.6419 9.91168 14.0881C9.35779 13.534 9.04685 12.7827 9.04685 11.9994C9.04705 11.2161 9.35824 10.4648 9.9123 9.91114C10.4662 9.35725 11.2175 9.04611 12.0008 9.04611C12.784 9.04631 13.5354 9.35749 14.0892 9.91135C14.6431 10.4652 14.9543 11.2166 14.9543 11.9998C14.9535 12.7831 14.6419 13.5338 14.088 14.0877C13.5341 14.6414 12.7832 14.9528 11.9999 14.9536L11.9999 14.9535Z" fill="white"/>
</svg>
