<?xml version="1.0"?><svg fill="#FFFFFF" xmlns="http://www.w3.org/2000/svg"  viewBox="0 0 30 30" width="30px" height="30px">    <path d="M 6 4 C 4.895 4 4 4.895 4 6 L 4 24 C 4 25.105 4.895 26 6 26 L 24 26 C 25.105 26 26 25.105 26 24 L 26 6 C 26 4.895 25.105 4 24 4 L 6 4 z M 7.8222656 11.205078 C 8.3192656 11.205078 8.6445312 11.492203 8.6445312 11.908203 C 8.6445312 12.319203 8.3192656 12.609375 7.8222656 12.609375 C 7.3202656 12.609375 7 12.319203 7 11.908203 C 7 11.492203 7.3202656 11.205078 7.8222656 11.205078 z M 13.074219 11.544922 C 15.110219 11.544922 16.386719 12.936969 16.386719 15.167969 C 16.386719 17.404969 15.115219 18.794922 13.074219 18.794922 C 11.029219 18.794922 9.7539063 17.403969 9.7539062 15.167969 C 9.7539062 12.931969 11.048219 11.544922 13.074219 11.544922 z M 20.238281 11.544922 C 21.758281 11.544922 22.833953 12.395047 22.876953 13.623047 L 21.519531 13.623047 C 21.452531 13.078047 20.946047 12.716797 20.248047 12.716797 C 19.526047 12.716797 19.048828 13.051172 19.048828 13.576172 C 19.048828 14.001172 19.378547 14.245969 20.185547 14.417969 L 21.017578 14.59375 C 22.403578 14.88475 23 15.482734 23 16.552734 C 23 17.943734 21.933125 18.794922 20.203125 18.794922 C 18.559125 18.794922 17.493406 17.986172 17.441406 16.701172 L 18.837891 16.701172 C 18.904891 17.260172 19.467297 17.619141 20.279297 17.619141 C 21.029297 17.619141 21.560547 17.255375 21.560547 16.734375 C 21.560547 16.294375 21.217094 16.041375 20.371094 15.859375 L 19.472656 15.669922 C 18.215656 15.406922 17.599609 14.750219 17.599609 13.699219 C 17.599609 12.399219 18.647281 11.544922 20.238281 11.544922 z M 13.074219 12.810547 C 11.956219 12.810547 11.228516 13.724969 11.228516 15.167969 C 11.228516 16.605969 11.941219 17.527344 13.074219 17.527344 C 14.197219 17.527344 14.914062 16.606969 14.914062 15.167969 C 14.914062 13.724969 14.197219 12.810547 13.074219 12.810547 z M 7.1230469 13.347656 L 8.515625 13.347656 L 8.515625 18.617188 L 7.1230469 18.617188 L 7.1230469 13.347656 z"/></svg>