<svg id="XD_lockup" xmlns="http://www.w3.org/2000/svg" width="181" height="44" viewBox="0 0 181 44">
  <g id="Layer_2" data-name="Layer 2">
    <g id="Surfaces">
      <g id="UI_UX_Surface" data-name="UI UX Surface">
        <g id="Outline_no_shadow" data-name="Outline no shadow">
          <g id="Group_175492" data-name="Group 175492">
            <path id="Path_104683" data-name="Path 104683" d="M9.712,0H35.417a9.712,9.712,0,0,1,9.712,9.712V34.288A9.712,9.712,0,0,1,35.417,44H9.712A9.712,9.712,0,0,1,0,34.288V9.712A9.712,9.712,0,0,1,9.712,0Z" fill="#470137"/>
          </g>
        </g>
      </g>
    </g>
    <g id="Outlined_Mnemonics_Logos" data-name="Outlined Mnemonics Logos" transform="translate(6.57 9.632)">
      <g id="Xd">
        <g id="Group_175493" data-name="Group 175493" transform="translate(0 1.632)">
          <path id="Path_104674" data-name="Path 104674" d="M-265.646,14.131l-5.631,9.294,6.025,9.87a.309.309,0,0,1,.03.227c-.02.071-.09.026-.212.046h-4.3c-.3,0-.515-.011-.636-.213q-.606-1.181-1.211-2.347t-1.287-2.376q-.682-1.211-1.348-2.453h-.03q-.606,1.211-1.256,2.422t-1.287,2.406q-.636,1.2-1.3,2.377c-.081.182-.222.2-.424.2h-4.147c-.08,0-.126.032-.136-.049a.3.3,0,0,1,.046-.212l5.843-9.6L-282.6,14.1c-.061-.081-.071-.146-.03-.2a.219.219,0,0,1,.182-.075h4.268a.626.626,0,0,1,.273.045.554.554,0,0,1,.181.167q.545,1.211,1.212,2.422t1.347,2.391q.681,1.181,1.256,2.391h.03q.6-1.241,1.226-2.422t1.271-2.377q.651-1.2,1.256-2.376a.472.472,0,0,1,.121-.2.436.436,0,0,1,.242-.045h3.966a.173.173,0,0,1,.21.126.173.173,0,0,1-.059.176Z" transform="translate(282.799 -13.823)" fill="#ff61f6"/>
        </g>
        <g id="Group_175494" data-name="Group 175494" transform="translate(17.94)">
          <path id="Path_104675" data-name="Path 104675" d="M-252.88,33.59a9.378,9.378,0,0,1-4.041-.847,6.423,6.423,0,0,1-2.831-2.559,8.176,8.176,0,0,1-1.03-4.283,7.9,7.9,0,0,1,1.03-3.966,7.555,7.555,0,0,1,3-2.906A9.672,9.672,0,0,1-252,17.938c.1,0,.232.006.394.015s.353.025.575.046V12.034c0-.141.06-.212.182-.212h3.814a.161.161,0,0,1,.182.137.138.138,0,0,1,0,.045V29.9q0,.516.046,1.12t.076,1.089a.313.313,0,0,1-.182.3,14.993,14.993,0,0,1-3.058.908A16.319,16.319,0,0,1-252.88,33.59Zm1.846-3.754V21.571a2.975,2.975,0,0,0-.5-.091q-.309-.031-.621-.03a4.677,4.677,0,0,0-2.119.485,4.133,4.133,0,0,0-1.589,1.393,4.161,4.161,0,0,0-.621,2.391,5.341,5.341,0,0,0,.318,1.938,3.7,3.7,0,0,0,.848,1.332,3.221,3.221,0,0,0,1.271.756,4.967,4.967,0,0,0,1.56.243q.423,0,.787-.031A3.2,3.2,0,0,0-251.034,29.836Z" transform="translate(260.782 -11.821)" fill="#ff61f6"/>
        </g>
      </g>
    </g>
  </g>
  <g id="Group_175495" data-name="Group 175495" transform="translate(58 9.755)">
    <path id="Path_104676" data-name="Path 104676" d="M-214.9,29.016l-1.445,4.463a.327.327,0,0,1-.332.24h-3.492c-.212,0-.272-.121-.242-.3l6.023-17.4a5.473,5.473,0,0,0,.3-1.838.2.2,0,0,1,.18-.212h4.818c.151,0,.211.031.241.182l6.837,19.3c.059.15.03.271-.151.271h-3.914a.3.3,0,0,1-.331-.21l-1.536-4.493Zm5.842-3.769c-.6-1.99-1.807-5.638-2.379-7.778h-.03c-.482,2.02-1.566,5.336-2.349,7.778Z" transform="translate(220.414 -12.342)"/>
    <path id="Path_104677" data-name="Path 104677" d="M-197.549,25.992c0-4.311,3.222-7.929,8.732-7.929.241,0,.542.03.994.06V12.184a.191.191,0,0,1,.212-.212h3.794c.151,0,.181.061.181.182V29.972a17.022,17.022,0,0,0,.12,2.2c0,.151-.03.211-.211.271a15.116,15.116,0,0,1-5.933,1.207C-194.116,33.651-197.549,31.118-197.549,25.992Zm9.726-4.281a3.115,3.115,0,0,0-1.114-.15,4.019,4.019,0,0,0-4.306,4.221c0,2.985,1.716,4.281,4.006,4.281a4.256,4.256,0,0,0,1.414-.181Z" transform="translate(216.157 -11.972)"/>
    <path id="Path_104678" data-name="Path 104678" d="M-163,27.166c0,4.733-3.071,7.869-7.407,7.869-5.15,0-7.438-3.89-7.438-7.779,0-4.282,2.861-7.809,7.5-7.809C-165.5,19.447-163,23.095-163,27.166Zm-10.6.03c0,2.653,1.234,4.341,3.252,4.341,1.746,0,3.071-1.507,3.071-4.281,0-2.352-.963-4.311-3.252-4.311C-172.273,22.945-173.6,24.513-173.6,27.2Z" transform="translate(212.488 -13.356)"/>
    <path id="Path_104679" data-name="Path 104679" d="M-153.054,11.972c.241,0,.3.031.3.241v6.181a9.679,9.679,0,0,1,2.529-.332A6.9,6.9,0,0,1-143,25.239c0,5.639-4.457,8.412-9.034,8.412a15.754,15.754,0,0,1-4.727-.694.354.354,0,0,1-.181-.3V12.184c0-.151.059-.212.211-.212Zm2.078,9.648a6.115,6.115,0,0,0-1.777.241v8.17a4.627,4.627,0,0,0,1.114.121,4.147,4.147,0,0,0,4.366-4.523C-147.272,22.886-148.868,21.62-150.976,21.62Z" transform="translate(208.596 -11.972)"/>
    <path id="Path_104680" data-name="Path 104680" d="M-133.889,28.342c.15,1.718,1.355,3.135,4.307,3.135a9.317,9.317,0,0,0,3.7-.693c.091-.06.181-.03.181.151V33.8c0,.211-.06.3-.212.362a10.093,10.093,0,0,1-4.607.875c-5.661,0-7.649-3.89-7.649-7.628,0-4.161,2.56-7.96,7.288-7.96,4.548,0,6.353,3.527,6.353,6.512a9.7,9.7,0,0,1-.15,2.021.261.261,0,0,1-.242.241,27.924,27.924,0,0,1-3.1.121Zm3.914-2.925a9.805,9.805,0,0,0,1.506-.06v-.21a2.451,2.451,0,0,0-2.56-2.383,2.854,2.854,0,0,0-2.891,2.653Z" transform="translate(205.101 -13.356)"/>
    <path id="Path_104681" data-name="Path 104681" d="M-101.68,23.529l5.962,9.859a.2.2,0,0,1-.15.331h-4.277a.5.5,0,0,1-.512-.271c-1.325-2.352-2.651-4.7-4-7.176h-.03c-1.205,2.412-2.53,4.854-3.794,7.206a.405.405,0,0,1-.422.24h-4.065c-.212,0-.212-.181-.12-.3l5.781-9.589-5.661-9.557a.181.181,0,0,1,.151-.3h4.246c.211,0,.3.031.391.242,1.2,2.381,2.62,4.763,3.854,7.146h.03c1.175-2.413,2.5-4.735,3.734-7.146a.4.4,0,0,1,.422-.242h3.884c.211,0,.241.152.12.332Z" transform="translate(200.444 -12.342)"/>
    <path id="Path_104682" data-name="Path 104682" d="M-89.922,14.228c0-.15.03-.21.212-.24.9-.031,3.191-.091,5.871-.091,7.2,0,10.72,4.041,10.72,9.619,0,7.206-5.54,10.25-10.659,10.25-1.988,0-5,0-5.963-.06-.12,0-.181-.09-.181-.3Zm4.185,15.86c.6.03,1.084.061,1.777.061,3.945,0,6.534-2.383,6.534-6.574,0-4.04-2.589-6.03-6.444-6.03-.722,0-1.2,0-1.867.03Z" transform="translate(196.119 -12.328)"/>
  </g>
</svg>
